<svg width="1012" height="506" viewBox="0 0 1012 506" fill="none" xmlns="http://www.w3.org/2000/svg">
<rect width="1012" height="506" fill="#793EF9"/>
<path d="M149.665 307V206.488H192.865C202.177 206.488 209.377 209.224 214.465 214.696C219.553 220.168 222.097 227.512 222.097 236.728C222.097 245.944 219.553 253.288 214.465 258.76C209.377 264.232 202.177 266.968 192.865 266.968H165.937V307H149.665ZM165.937 252.712H191.857C195.985 252.712 199.201 251.656 201.505 249.544C203.809 247.336 204.961 244.216 204.961 240.184V233.272C204.961 229.24 203.809 226.168 201.505 224.056C199.201 221.848 195.985 220.744 191.857 220.744H165.937V252.712ZM237.388 307V232.12H253.084V246.52H253.804C254.86 242.68 257.068 239.32 260.428 236.44C263.788 233.56 268.444 232.12 274.396 232.12H278.572V247.24H272.38C266.14 247.24 261.34 248.248 257.98 250.264C254.716 252.28 253.084 255.256 253.084 259.192V307H237.388ZM321.186 308.728C316.002 308.728 311.25 307.816 306.93 305.992C302.706 304.168 299.106 301.576 296.13 298.216C293.154 294.76 290.85 290.632 289.218 285.832C287.586 280.936 286.77 275.512 286.77 269.56C286.77 263.608 287.586 258.232 289.218 253.432C290.85 248.536 293.154 244.408 296.13 241.048C299.106 237.592 302.706 234.952 306.93 233.128C311.25 231.304 316.002 230.392 321.186 230.392C326.37 230.392 331.074 231.304 335.298 233.128C339.618 234.952 343.266 237.592 346.242 241.048C349.218 244.408 351.522 248.536 353.154 253.432C354.786 258.232 355.602 263.608 355.602 269.56C355.602 275.512 354.786 280.936 353.154 285.832C351.522 290.632 349.218 294.76 346.242 298.216C343.266 301.576 339.618 304.168 335.298 305.992C331.074 307.816 326.37 308.728 321.186 308.728ZM321.186 295.768C326.562 295.768 330.882 294.136 334.146 290.872C337.41 287.512 339.042 282.52 339.042 275.896V263.224C339.042 256.6 337.41 251.656 334.146 248.392C330.882 245.032 326.562 243.352 321.186 243.352C315.81 243.352 311.49 245.032 308.226 248.392C304.962 251.656 303.33 256.6 303.33 263.224V275.896C303.33 282.52 304.962 287.512 308.226 290.872C311.49 294.136 315.81 295.768 321.186 295.768ZM372.194 271.144V255.16H412.082V271.144H372.194ZM460.73 308.728C452.282 308.728 445.082 307.192 439.13 304.12C433.274 301.048 428.234 296.92 424.01 291.736L435.242 281.224C438.794 285.544 442.682 288.808 446.906 291.016C451.226 293.224 456.122 294.328 461.594 294.328C468.026 294.328 472.874 292.888 476.138 290.008C479.402 287.128 481.034 283.24 481.034 278.344C481.034 274.408 479.882 271.288 477.578 268.984C475.274 266.68 471.194 264.952 465.338 263.8L456.41 262.216C446.618 260.392 439.274 257.176 434.378 252.568C429.482 247.96 427.034 241.624 427.034 233.56C427.034 229.144 427.85 225.16 429.482 221.608C431.21 217.96 433.562 214.936 436.538 212.536C439.61 210.04 443.306 208.12 447.626 206.776C451.946 205.432 456.794 204.76 462.17 204.76C469.754 204.76 476.33 206.104 481.898 208.792C487.466 211.384 492.218 215.176 496.154 220.168L484.778 230.248C482.186 226.888 479.018 224.2 475.274 222.184C471.53 220.168 466.874 219.16 461.306 219.16C455.546 219.16 451.082 220.312 447.914 222.616C444.746 224.92 443.162 228.28 443.162 232.696C443.162 236.92 444.458 240.088 447.05 242.2C449.642 244.216 453.674 245.752 459.146 246.808L468.074 248.68C478.154 250.6 485.498 253.864 490.106 258.472C494.81 263.08 497.162 269.416 497.162 277.48C497.162 282.184 496.346 286.456 494.714 290.296C493.082 294.136 490.682 297.448 487.514 300.232C484.442 302.92 480.65 305.032 476.138 306.568C471.626 308.008 466.49 308.728 460.73 308.728ZM544.921 308.728C539.545 308.728 534.745 307.816 530.521 305.992C526.297 304.168 522.697 301.576 519.721 298.216C516.745 294.76 514.441 290.632 512.809 285.832C511.273 280.936 510.505 275.512 510.505 269.56C510.505 263.608 511.273 258.232 512.809 253.432C514.441 248.536 516.745 244.408 519.721 241.048C522.697 237.592 526.297 234.952 530.521 233.128C534.745 231.304 539.545 230.392 544.921 230.392C550.393 230.392 555.193 231.352 559.321 233.272C563.545 235.192 567.049 237.88 569.833 241.336C572.617 244.696 574.681 248.632 576.025 253.144C577.465 257.656 578.185 262.504 578.185 267.688V273.592H526.777V276.04C526.777 281.8 528.457 286.552 531.817 290.296C535.273 293.944 540.169 295.768 546.505 295.768C551.113 295.768 555.001 294.76 558.169 292.744C561.337 290.728 564.025 287.992 566.233 284.536L575.449 293.608C572.665 298.216 568.633 301.912 563.353 304.696C558.073 307.384 551.929 308.728 544.921 308.728ZM544.921 242.632C542.233 242.632 539.737 243.112 537.433 244.072C535.225 245.032 533.305 246.376 531.673 248.104C530.137 249.832 528.937 251.896 528.073 254.296C527.209 256.696 526.777 259.336 526.777 262.216V263.224H561.625V261.784C561.625 256.024 560.137 251.416 557.161 247.96C554.185 244.408 550.105 242.632 544.921 242.632ZM650.424 307C646.296 307 643.128 305.848 640.92 303.544C638.712 301.144 637.368 298.12 636.888 294.472H636.168C634.728 299.176 632.088 302.728 628.248 305.128C624.408 307.528 619.752 308.728 614.28 308.728C606.504 308.728 600.504 306.712 596.28 302.68C592.152 298.648 590.088 293.224 590.088 286.408C590.088 278.92 592.776 273.304 598.152 269.56C603.624 265.816 611.592 263.944 622.056 263.944H635.592V257.608C635.592 253 634.344 249.448 631.848 246.952C629.352 244.456 625.464 243.208 620.184 243.208C615.768 243.208 612.168 244.168 609.384 246.088C606.6 248.008 604.248 250.456 602.328 253.432L592.968 244.936C595.464 240.712 598.968 237.256 603.48 234.568C607.992 231.784 613.896 230.392 621.192 230.392C630.888 230.392 638.328 232.648 643.512 237.16C648.696 241.672 651.288 248.152 651.288 256.6V294.184H659.208V307H650.424ZM618.744 296.776C623.64 296.776 627.672 295.72 630.84 293.608C634.008 291.4 635.592 288.472 635.592 284.824V274.024H622.344C611.496 274.024 606.072 277.384 606.072 284.104V286.696C606.072 290.056 607.176 292.6 609.384 294.328C611.688 295.96 614.808 296.776 618.744 296.776ZM674.591 307V232.12H690.287V246.52H691.007C692.063 242.68 694.271 239.32 697.631 236.44C700.991 233.56 705.647 232.12 711.599 232.12H715.775V247.24H709.583C703.343 247.24 698.543 248.248 695.183 250.264C691.919 252.28 690.287 255.256 690.287 259.192V307H674.591ZM757.957 308.728C752.581 308.728 747.781 307.816 743.557 305.992C739.333 304.168 735.781 301.576 732.901 298.216C730.021 294.76 727.813 290.632 726.277 285.832C724.741 280.936 723.973 275.512 723.973 269.56C723.973 263.608 724.741 258.232 726.277 253.432C727.813 248.536 730.021 244.408 732.901 241.048C735.781 237.592 739.333 234.952 743.557 233.128C747.781 231.304 752.581 230.392 757.957 230.392C765.445 230.392 771.589 232.072 776.389 235.432C781.189 238.792 784.693 243.256 786.901 248.824L773.941 254.872C772.885 251.416 771.013 248.68 768.325 246.664C765.733 244.552 762.277 243.496 757.957 243.496C752.197 243.496 747.829 245.32 744.853 248.968C741.973 252.52 740.533 257.176 740.533 262.936V276.328C740.533 282.088 741.973 286.792 744.853 290.44C747.829 293.992 752.197 295.768 757.957 295.768C762.565 295.768 766.213 294.664 768.901 292.456C771.685 290.152 773.893 287.128 775.525 283.384L787.477 289.72C784.981 295.864 781.237 300.568 776.245 303.832C771.253 307.096 765.157 308.728 757.957 308.728ZM802.42 200.44H818.116V244.504H818.836C820.468 240.472 822.916 237.112 826.18 234.424C829.54 231.736 834.1 230.392 839.86 230.392C847.54 230.392 853.492 232.936 857.716 238.024C862.036 243.016 864.196 250.168 864.196 259.48V307H848.5V261.352C848.5 249.736 843.796 243.928 834.388 243.928C832.372 243.928 830.356 244.216 828.34 244.792C826.42 245.272 824.692 246.04 823.156 247.096C821.62 248.152 820.372 249.496 819.412 251.128C818.548 252.76 818.116 254.632 818.116 256.744V307H802.42V200.44Z" fill="white"/>
</svg>
